<?xml version="1.0" encoding="UTF-8"?>
<svg id="Capa_2" data-name="Capa 2" xmlns="http://www.w3.org/2000/svg" viewBox="0 0 158.18 46.86">
  <defs>
    <style>
      .cls-1 {
        fill: #754d24;
      }

      .cls-2 {
        font-family: Poppins-Bold, Poppins;
        font-size: 6.71px;
        font-weight: 700;
        letter-spacing: .35em;
      }

      .cls-2, .cls-3 {
        fill: #fff;
      }

      .cls-4 {
        fill: #b97f4c;
      }
    </style>
  </defs>
  <g id="Capa_1-2" data-name="Capa 1">
    <g>
      <path class="cls-1" d="M32.11,9.94l7.73,16.24h-4.8l-1.55-3.5-5.8.19-1.26,3.31h-2.38l5.54-11.44,1.81-4.8h.71ZM30.42,15.74l-2.19,5.76,4.8.17-2.62-5.92Z"/>
      <path class="cls-1" d="M42.05,26.18V10.15h4.16v16.03h-4.16Z"/>
      <path class="cls-1" d="M50.32,26.18V10.15h4.16v7.85l2.76-.93,3.83-6.92h2.69l-4.71,6.37,5.3,9.66h-4.85l-3.4-7.02-1.62-.29v7.3h-4.16Z"/>
      <path class="cls-1" d="M66.71,26.18V10.15h4.16v16.03h-4.16Z"/>
      <path class="cls-1" d="M79.86,26.18V10.15l4.16.17,6.68-.17v1.78l-6.68-.59v6.21l5.21-.45v1.78l-5.21-.31v6.42l6.8-.59v1.78l-6.8-.17-4.16.17Z"/>
      <path class="cls-1" d="M98.72,9.89c1.59,0,3.06.26,4.42.78v2.5c-1.84-1.39-3.44-2.09-4.8-2.09-.62,0-1.12.17-1.51.52-.39.35-.58.8-.58,1.36,0,.67.24,1.22.71,1.65.48.44,1.51,1.06,3.12,1.87,1.44.73,2.48,1.47,3.1,2.24.63.76.94,1.66.94,2.69,0,1.55-.54,2.78-1.62,3.69-1.08.9-2.54,1.36-4.4,1.36-2.05,0-3.71-.28-4.99-.83v-2.5c.86.65,1.74,1.17,2.66,1.56.92.39,1.73.58,2.43.58s1.3-.18,1.77-.54c.47-.36.7-.81.7-1.37,0-.74-.27-1.38-.8-1.91-.53-.53-1.54-1.16-3.03-1.89-1.46-.71-2.48-1.43-3.06-2.15-.58-.72-.87-1.63-.87-2.72,0-1.43.53-2.58,1.61-3.46,1.07-.88,2.47-1.32,4.2-1.32Z"/>
      <path class="cls-1" d="M119.24,10.15v2.09l-4.88-.81v14.75h-4.16v-14.75l-4.88.81v-2.09l6.94.17,6.97-.17Z"/>
      <path class="cls-1" d="M126.02,9.94l7.73,16.24h-4.8l-1.55-3.5-5.8.19-1.26,3.31h-2.38l5.54-11.44,1.81-4.8h.71ZM124.33,15.74l-2.19,5.76,4.8.17-2.62-5.92Z"/>
      <rect class="cls-4" x="34.42" y="0" width="89.35" height="7.19" rx="3.6" ry="3.6"/>
      <text class="cls-2" transform="translate(39.09 6) scale(1 .9)"><tspan x="0" y="0">NO ESTÁS SOLO</tspan></text>
      <path class="cls-1" d="M126.01,9.9l7.74,16.27h-4.81l-1.55-3.5-5.81.19-1.26,3.31h-2.38l5.55-11.46,1.81-4.81h.71ZM124.32,15.71l-2.19,5.76,4.81.17-2.62-5.93ZM128.01,4.28l1.24,2.52-6.14,2.19v-.6l4.91-4.12Z"/>
      <g>
        <path class="cls-1" d="M27.47,42.51c-1.6-1.48-2.4-3.36-2.4-5.65s.8-4.17,2.4-5.65c1.6-1.48,3.64-2.21,6.11-2.21,1.84,0,3.5.29,4.99.86v2.71c-1.76-1.63-3.42-2.44-4.99-2.44-1.21,0-2.16.61-2.88,1.82-.71,1.21-1.07,2.85-1.07,4.91s.36,3.7,1.07,4.91c.71,1.21,1.67,1.82,2.88,1.82,1.57,0,3.23-.81,4.99-2.44v2.71c-1.49.57-3.16.86-4.99.86-2.47,0-4.51-.74-6.11-2.21Z"/>
        <path class="cls-1" d="M72.27,44.59l-10.94-9.51.45,9.4h-2.14l.48-10.51-.14-4.83h.71l10.96,9.53-.48-9.42h2.14l-.45,10.26.12,5.08h-.71Z"/>
        <path class="cls-1" d="M89.63,29.25v1.99l-4.88-.77v14.01h-4.16v-14.01l-4.88.77v-1.99l6.94.16,6.97-.16Z"/>
        <path class="cls-1" d="M92.04,44.47v-15.23h4.16v15.23h-4.16Z"/>
        <path class="cls-1" d="M99.12,36.86c0-2.32.79-4.21,2.37-5.67,1.58-1.46,3.67-2.19,6.27-2.19.84,0,1.76.08,2.76.24,1,.16,1.83.37,2.5.62v2.71c-.84-.77-1.73-1.37-2.66-1.8-.94-.43-1.8-.64-2.59-.64-1.33,0-2.34.6-3.03,1.78-.69,1.19-1.03,2.84-1.03,4.95s.35,3.72,1.06,4.93c.71,1.21,1.67,1.81,2.89,1.81.78,0,1.47-.12,2.07-.36v-5.81h4.16v5.94c-.62.39-1.5.72-2.64.97-1.14.26-2.34.38-3.59.38-2.49,0-4.53-.74-6.12-2.21-1.59-1.48-2.39-3.36-2.39-5.65Z"/>
        <path class="cls-1" d="M55.11,31.2c1.55,1.47,2.32,3.36,2.32,5.66s-.77,4.19-2.32,5.66c-1.55,1.47-3.55,2.2-6.01,2.2s-4.46-.73-6-2.2c-1.55-1.47-2.32-3.36-2.32-5.66s.77-4.19,2.32-5.66c1.55-1.47,3.55-2.2,6-2.2s4.46.73,6.01,2.2ZM51.89,41.82c.65-1.18.98-2.84.98-4.96s-.33-3.78-.98-4.96c-.65-1.18-1.58-1.77-2.78-1.77s-2.13.59-2.78,1.77c-.65,1.18-.98,2.84-.98,4.96s.32,3.78.98,4.96c.65,1.18,1.58,1.77,2.78,1.77s2.13-.59,2.78-1.77Z"/>
      </g>
      <path class="cls-1" d="M124.76,45.61c-1.55-.53-3.86-1.07-5.74-3.01-3.57-3.71-5.73-10.19-1.92-12.7,2.8-1.84,4.9-.07,7.64,2.41,2.73-2.47,4.82-4.3,7.64-2.41,3.58,2.41,1.1,8.48-2.12,12.49-1.03,1.29-3.87,2.68-5.5,3.22-.26.08.26,0,0,0"/>
      <g>
        <path class="cls-3" d="M131.94,40.25s-3.67,1.41-6.51-2.02c.46-.78.53-2.56-.04-2.56-.57,0-.84,1.25-.84,1.25,0,0-.6-3-2.35-1.94s.73,5.78,5.11,7.4,4.64-2.14,4.64-2.14h0Z"/>
        <path class="cls-3" d="M115.92,37.86s3.04,2.41,6.7-.04c-.2-.88.25-2.61.78-2.44s.43,1.44.43,1.44c0,0,1.43-2.69,2.77-1.17,1.33,1.52-2.36,5.32-6.94,5.6-4.59.28-3.73-3.39-3.73-3.39h0Z"/>
      </g>
    </g>
  </g>
</svg>